<svg xmlns="http://www.w3.org/2000/svg" width="600" height="400" viewBox="0 0 600 400" fill="none">
  <!-- 背景渐变 -->
  <defs>
    <linearGradient id="paint0_linear" x1="0" y1="0" x2="600" y2="400" gradientUnits="userSpaceOnUse">
      <stop stop-color="#F5F7FA"/>
      <stop offset="1" stop-color="#E4E7EB"/>
    </linearGradient>
  </defs>

  <!-- 背景 -->
  <rect width="600" height="400" rx="20" fill="url(#paint0_linear)"/>

  <!-- 堆栈图标 -->
  <g transform="translate(250, 100)">
    <!-- 底部层 -->
    <rect x="10" y="160" width="120" height="40" rx="8" fill="#4361EE" opacity="0.7"/>
    
    <!-- 中间层 -->
    <rect x="0" y="130" width="140" height="40" rx="8" fill="#4361EE" opacity="0.8"/>
    
    <!-- 顶部层 -->
    <rect x="-10" y="100" width="160" height="40" rx="8" fill="#4361EE" opacity="0.9"/>
    
    <!-- Docker容器符号 -->
    <rect x="50" y="70" width="40" height="40" rx="8" fill="#FF7B73"/>
    
    <!-- 云符号 -->
    <path d="M10,70 Q20,50 40,60 Q50,40 70,50 Q90,40 100,60 Q120,50 130,70 Q140,80 130,90 Q125,100 10,90 Q0,80 10,70" fill="#879AFA" opacity="0.7"/>
  </g>

  <!-- 代码符号 -->
  <g transform="translate(150, 150)">
    <!-- 代码框 -->
    <rect x="0" y="0" width="100" height="120" rx="10" fill="#FFFFFF" stroke="#DDE2E5" stroke-width="2"/>
    
    <!-- 代码线条 -->
    <line x1="20" y1="30" x2="80" y2="30" stroke="#4361EE" stroke-width="3"/>
    <line x1="20" y1="50" x2="70" y2="50" stroke="#879AFA" stroke-width="3"/>
    <line x1="20" y1="70" x2="60" y2="70" stroke="#4361EE" stroke-width="3"/>
    <line x1="20" y1="90" x2="75" y2="90" stroke="#879AFA" stroke-width="3"/>
  </g>

  <!-- 齿轮符号 -->
  <g transform="translate(400, 150)">
    <circle cx="50" cy="50" r="30" fill="#FFFFFF" stroke="#DDE2E5" stroke-width="2"/>
    <path d="M50,20 L55,30 L65,25 L70,35 L60,40 L65,50 L75,55 L70,65 L60,60 L55,70 L50,80 L45,70 L35,75 L30,65 L40,60 L35,50 L25,45 L30,35 L40,40 L45,30 Z" fill="#FF7B73" opacity="0.7"/>
    <circle cx="50" cy="50" r="10" fill="#FFFFFF"/>
  </g>

  <!-- 连接线 -->
  <g transform="translate(0, 0)" stroke="#DDE2E5" stroke-width="2" stroke-dasharray="5,5">
    <path d="M200,180 C220,160 230,150 300,150" />
    <path d="M400,180 C380,160 370,150 300,150" />
  </g>
</svg>
