<?xml version="1.0" encoding="UTF-8" standalone="no"?>
<svg width="200" height="200" viewBox="0 0 200 200" fill="none" xmlns="http://www.w3.org/2000/svg">
  <!-- 底部波浪形状 - 表示平稳的基础 -->
  <path d="M0 150C40 130 60 170 100 150C140 130 160 170 200 150V200H0V150Z" fill="#E5F4FA"/>
  
  <!-- 中间图层 - 代表容器层 -->
  <rect x="40" y="60" width="120" height="90" rx="8" fill="#00B2C8"/>
  
  <!-- 顶部图层 - 表示应用层 -->
  <rect x="60" y="40" width="80" height="60" rx="6" fill="#0077B6"/>
  
  <!-- 连接线 - 表示无缝集成 -->
  <path d="M70 80L50 100M130 80L150 100" stroke="#FFFFFF" stroke-width="4" stroke-linecap="round"/>
  
  <!-- 中心S图标 - Smoothstack标志 -->
  <path d="M100 60C94 60 90 63 90 68C90 73 94 75 100 77C106 79 110 81 110 86C110 91 106 94 100 94C94 94 90 91 90 86" stroke="#FFFFFF" stroke-width="5" stroke-linecap="round"/>
  
  <!-- 数据流动指示 - 代表数据流 -->
  <circle cx="85" cy="110" r="5" fill="#FFFFFF" opacity="0.8"/>
  <circle cx="100" cy="110" r="5" fill="#FFFFFF" opacity="0.9"/>
  <circle cx="115" cy="110" r="5" fill="#FFFFFF"/>
</svg> 